<?xml version="1.0" encoding="UTF-8"?>
<svg version="1.1" xmlns="http://www.w3.org/2000/svg" width="1254" height="1254">
<path d="M0 0 C413.82 0 827.64 0 1254 0 C1254 413.82 1254 827.64 1254 1254 C840.18 1254 426.36 1254 0 1254 C0 840.18 0 426.36 0 0 Z " fill="#095FEF" transform="translate(0,0)"/>
<path d="M0 0 C-3.49531441 17.99034301 -7.34859241 35.89016716 -11.35576248 53.77249146 C-12.13438675 57.25020041 -12.90970194 60.72864699 -13.68530273 64.20703125 C-14.90529209 69.6769189 -16.12674062 75.14647804 -17.34960938 80.61572266 C-19.42722637 89.90900388 -21.49671168 99.20408322 -23.5625 108.5 C-23.71976563 109.20728241 -23.87703125 109.91456482 -24.0390625 110.64328003 C-26.73150949 122.75381185 -29.38656073 134.87217237 -32 147 C-32.27328125 148.26585937 -32.5465625 149.53171875 -32.828125 150.8359375 C-33.88708191 155.75896058 -34.9351993 160.68404678 -35.96484375 165.61328125 C-38.13754145 176.00875639 -40.38919505 186.37468921 -42.8984375 196.6953125 C-44.97356813 205.28158726 -46.801184 213.8934847 -48.5 222.5625 C-50.09236322 230.68729488 -51.87329653 238.68477134 -53.96484375 246.6953125 C-55.64552711 253.41476016 -56.87593275 260.24312632 -58.16210938 267.046875 C-59.26515196 272.76959099 -60.61922365 278.28052038 -62.35961914 283.84179688 C-63.14319741 286.48260202 -63.5897888 289.08159968 -63.9375 291.8125 C-64.81426229 297.92061063 -65.83325383 303.99200145 -66.9375 310.0625 C-67.09532959 310.97942627 -67.25315918 311.89635254 -67.41577148 312.84106445 C-67.57634033 313.70948975 -67.73690918 314.57791504 -67.90234375 315.47265625 C-68.04148193 316.24875244 -68.18062012 317.02484863 -68.32397461 317.82446289 C-69.10868716 320.34976934 -70.31681861 321.98092875 -72 324 C-72.65484375 323.33991943 -73.3096875 322.67983887 -73.984375 321.99975586 C-76.44990126 319.51703534 -78.91777834 317.03669808 -81.38720703 314.55786133 C-82.44900861 313.49107703 -83.50990558 312.42339147 -84.56982422 311.35473633 C-86.10658913 309.80563666 -87.64674113 308.25996989 -89.1875 306.71484375 C-90.10917969 305.78792725 -91.03085937 304.86101074 -91.98046875 303.90600586 C-94.19180332 301.73220736 -96.48760536 299.68879294 -98.8359375 297.6640625 C-103.23249988 293.85142262 -107.33860434 289.78826053 -111.4375 285.66015625 C-112.20304199 284.89319931 -112.96858398 284.12624237 -113.75732422 283.33604431 C-116.17393197 280.91389119 -118.58701726 278.48826388 -121 276.0625 C-122.64950686 274.40797107 -124.29924429 272.75367198 -125.94921875 271.09960938 C-129.96881371 267.06905798 -133.98553169 263.03565728 -138 259 C-141.43756923 260.14585641 -141.92201272 260.90315742 -144 263.75 C-147.00341483 267.74188047 -150.13234014 271.57825021 -153.375 275.375 C-158.32693074 281.18857682 -163.18292783 287.07396157 -168 293 C-173.26021729 299.47120256 -178.58156873 305.88138432 -183.98388672 312.23388672 C-187.37221574 316.22943466 -190.6530567 320.2997601 -193.90625 324.40625 C-196.38811458 327.48079866 -198.93862277 330.49166811 -201.5 333.5 C-205.34027467 338.01378973 -209.10009435 342.57662703 -212.78515625 347.21875 C-220.11307768 356.42065486 -227.5533231 365.52532745 -235.18017578 374.48095703 C-238.57207541 378.47164732 -241.87272675 382.52477666 -245.12109375 386.6328125 C-246.34943183 388.18036526 -247.59116867 389.7174013 -248.84765625 391.2421875 C-284.53848975 434.77474418 -308.05782974 483.59853334 -308.20532227 540.11816406 C-308.21491373 542.45488147 -308.22492453 544.79159719 -308.23532104 547.12831116 C-308.26223884 553.44350397 -308.28331906 559.75870416 -308.30332303 566.07392216 C-308.32303815 572.01368043 -308.34715821 577.95341948 -308.37124526 583.89316139 C-308.41877829 595.64962768 -308.46208066 607.40610554 -308.50268555 619.16259766 C-308.54211355 630.57569273 -308.58356788 641.98877752 -308.62768555 653.40185547 C-308.63043505 654.11378772 -308.63318456 654.82571996 -308.63601738 655.55922592 C-308.6599556 661.75304955 -308.68404623 667.94687259 -308.70815182 674.14069557 C-308.81155536 700.76044381 -308.90495824 727.38021755 -309 754 C-369.39 754 -429.78 754 -492 754 C-492.1209091 702.92709942 -492.1209091 702.92709942 -492.14648438 681.38085938 C-492.1642246 666.55522517 -492.18497945 651.72964244 -492.22631836 636.90405273 C-492.25642238 626.10244939 -492.27562232 615.30088817 -492.28226548 604.49924403 C-492.28614253 598.79126407 -492.29511418 593.08340448 -492.31719017 587.37546349 C-492.48899543 541.11978636 -492.48899543 541.11978636 -489 519 C-488.83051031 517.90823141 -488.66102062 516.81646282 -488.48639488 515.69161034 C-485.62150076 497.40965293 -485.62150076 497.40965293 -482.64257812 488.93017578 C-481.9037592 486.71091194 -481.52970001 484.56986482 -481.25 482.25 C-478.53077849 466.04892394 -471.59012459 449.86655203 -464.13671875 435.3359375 C-462.49854958 431.96952801 -461.24199537 428.52988157 -460 425 C-459.34 425 -458.68 425 -458 425 C-457.83564453 424.44892578 -457.67128906 423.89785156 -457.50195312 423.33007812 C-455.7257372 417.66447881 -453.43876946 412.64891839 -450.5 407.5 C-450.06349121 406.72591797 -449.62698242 405.95183594 -449.17724609 405.15429688 C-444.88341116 397.63283006 -440.22967083 390.36537002 -435.43408203 383.15625 C-433.96844558 380.95255556 -432.51299968 378.74236928 -431.05859375 376.53125 C-416.38780865 354.29704149 -400.84467683 332.6415313 -384 312 C-383.22140625 311.03835938 -382.4428125 310.07671875 -381.640625 309.0859375 C-370.98350011 295.97238311 -359.91979159 283.19110065 -348.890625 270.390625 C-344.3016409 265.05879366 -339.74122166 259.71670329 -335.3125 254.25 C-331.708377 249.81164961 -327.9512428 245.54609578 -324.10546875 241.31640625 C-316.3678479 232.80358776 -308.97160497 223.9804267 -301.49414062 215.23974609 C-294.24725843 206.7698927 -286.96606547 198.33079843 -279.65869141 189.91308594 C-277.97187665 187.96756336 -276.28825982 186.01931599 -274.60546875 184.0703125 C-273.48710374 182.77593402 -272.36861567 181.48166186 -271.25 180.1875 C-270.43897827 179.24886108 -270.43897827 179.24886108 -269.61157227 178.29125977 C-266.45559151 174.64862939 -263.25139301 171.05822977 -260 167.5 C-256.67680415 163.84020051 -253.76180457 160.09816161 -251 156 C-259.4972406 148.68755904 -259.4972406 148.68755904 -268.25 141.6875 C-274.98529833 136.53039888 -281.46664382 131.05183003 -288.00390625 125.64794922 C-292.32266844 122.08243494 -296.66285668 118.54311247 -301 115 C-302.83345036 113.50014304 -304.66678171 112.0001406 -306.5 110.5 C-307.39847656 109.76523437 -308.29695312 109.03046875 -309.22265625 108.2734375 C-311.1485149 106.69699624 -313.0728929 105.11874508 -314.99609375 103.5390625 C-315.96675781 102.74242187 -316.93742188 101.94578125 -317.9375 101.125 C-318.81277344 100.40570313 -319.68804688 99.68640625 -320.58984375 98.9453125 C-322.12752497 97.70420189 -323.70127303 96.50567938 -325.31640625 95.3671875 C-325.87199219 94.91601562 -326.42757812 94.46484375 -327 94 C-327 93.34 -327 92.68 -327 92 C-326.34330322 91.82460693 -325.68660645 91.64921387 -325.01000977 91.46850586 C-312.53475438 88.13276629 -300.06694318 84.77065772 -287.625 81.3125 C-286.6357251 81.03978271 -285.6464502 80.76706543 -284.62719727 80.48608398 C-279.71321728 79.11334604 -274.86178624 77.63977971 -270.03125 75.99609375 C-264.04342177 73.97027162 -257.99161204 72.33599929 -251.875 70.75 C-241.49753111 68.01282875 -231.24253173 64.97848604 -220.99975586 61.77709961 C-214.18828936 59.65407891 -207.37439496 57.6978194 -200.46484375 55.91796875 C-196.61735942 54.89862397 -192.81152437 53.76983717 -189 52.625 C-182.24872018 50.60157068 -175.45347941 48.8060497 -168.625 47.0625 C-160.77158623 45.04990986 -153.04138345 42.81953882 -145.33105469 40.31835938 C-135.72110506 37.22301979 -125.98311282 34.5854913 -116.25244141 31.89990234 C-110.85186146 30.4056419 -105.45758889 28.88894063 -100.0625 27.375 C-92.33424293 25.20992445 -84.60351885 23.05403571 -76.86962891 20.90917969 C-66.24082462 17.95951376 -55.62127827 14.97662355 -45 12 C-38.62537371 10.21350479 -32.25063858 8.42741088 -25.875 6.64453125 C-22.08207861 5.58383059 -18.29049337 4.51856149 -14.5 3.44921875 C-12.85418063 2.98692946 -11.20834816 2.52468679 -9.5625 2.0625 C-8.81685791 1.85093262 -8.07121582 1.63936523 -7.30297852 1.42138672 C-2.22651097 0 -2.22651097 0 0 0 Z " fill="#FDFDFD" transform="translate(993,239)"/>
<path d="M0 0 C67.32 0 134.64 0 204 0 C206.64 4.62 209.28 9.24 212 14 C214.16257424 17.47947751 216.33857233 20.93606937 218.5625 24.375 C219.78082683 26.27417605 220.99824195 28.1739372 222.21484375 30.07421875 C222.83601074 31.04407715 223.45717773 32.01393555 224.09716797 33.01318359 C227.3063426 38.05052545 230.46545825 43.11893327 233.625 48.1875 C241.70695086 61.14263537 249.84743619 74.05911308 258.05688477 86.93383789 C264.26603496 96.67281787 270.41843933 106.44526419 276.53222656 116.24438477 C284.04522668 128.28452419 291.62175937 140.28330396 299.26342773 152.2421875 C301.61385441 155.92682978 303.95198506 159.61920104 306.28955078 163.31201172 C307.97995208 165.96849449 309.69024464 168.61137257 311.40234375 171.25390625 C312.43568928 172.87709932 313.46828111 174.50077254 314.5 176.125 C314.98734619 176.86500244 315.47469238 177.60500488 315.97680664 178.36743164 C317.28125 180.4453125 317.28125 180.4453125 319 184 C317.69388604 187.46343988 315.47602726 190.04171074 313.125 192.875 C312.32449219 193.84050781 311.52398438 194.80601562 310.69921875 195.80078125 C307.80561116 199.24452886 304.87171174 202.65335753 301.9375 206.0625 C297.16478053 211.61496891 292.47683112 217.20376209 288 223 C287.23743896 223.98419922 287.23743896 223.98419922 286.45947266 224.98828125 C271.69683699 244.11898188 258.25027486 264.17182249 246 285 C245.54238281 285.77778809 245.08476562 286.55557617 244.61328125 287.35693359 C238.18769751 298.33543951 232.07081623 309.47659037 226.0625 320.6875 C225.74535034 321.27891785 225.42820068 321.87033569 225.10144043 322.47967529 C221.28892171 329.59907167 217.56351981 336.75256424 214 344 C209.92031954 342.64010651 209.58007492 340.8824621 207.5625 337.125 C204.3382852 331.2643854 200.90962141 325.57665796 197.3125 319.9375 C193.05920762 313.2561576 188.84698828 306.55268805 184.6875 299.8125 C179.98252474 292.1930638 175.25096804 284.59084382 170.5 277 C164.16646382 266.87800639 157.86976345 256.73379569 151.59277344 246.57666016 C148.89744373 242.21637356 146.19849409 237.85832864 143.5 233.5 C142.41275475 231.74349309 141.32551516 229.98698268 140.23828125 228.23046875 C138.11161695 224.79498973 135.98395669 221.36013069 133.85546875 217.92578125 C124.51617105 202.85367831 115.22612032 187.75143111 105.93847656 172.64746094 C98.62012635 160.74688479 91.29665869 148.84971205 83.93505859 136.97583008 C80.27827951 131.07447928 76.64023625 125.16182521 73.00756836 119.24560547 C67.22615664 109.83197529 61.41707205 100.43923336 55.50097656 91.10961914 C51.53790207 84.85959249 47.60758538 78.58957324 43.6875 72.3125 C43.05924316 71.30662842 42.43098633 70.30075684 41.78369141 69.2644043 C39.20972007 65.14244332 36.63661928 61.01993921 34.06347656 56.89746094 C32.14688187 53.82722553 30.22982149 50.75728158 28.3125 47.6875 C27.69060791 46.69153809 27.06871582 45.69557617 26.42797852 44.66943359 C23.01654642 39.21060309 19.58849103 33.76287892 16.14038086 28.32714844 C11.95669723 21.72977525 7.80115329 15.11728276 3.75 8.4375 C3.36666504 7.81157959 2.98333008 7.18565918 2.58837891 6.54077148 C0 2.23590783 0 2.23590783 0 0 Z " fill="#FCFDFD" transform="translate(264,323)"/>
<path d="M0 0 C0.66 0 1.32 0 2 0 C1.67 79.86 1.34 159.72 1 242 C-59.39 242 -119.78 242 -182 242 C-182.04030303 190.2016448 -182.04030303 190.2016448 -182.04882812 168.50195312 C-182.0547626 153.51667946 -182.06174059 138.53141142 -182.07543945 123.54614258 C-182.08541133 112.63264539 -182.0918594 101.71915275 -182.09408849 90.80565113 C-182.09539134 85.02786917 -182.09845029 79.25010024 -182.10573006 73.47232246 C-182.11252974 68.03136659 -182.11460891 62.5904291 -182.11310768 57.14946938 C-182.11338223 55.15529022 -182.11536389 53.16111044 -182.11920547 51.16693497 C-182.12420443 48.43752596 -182.12297551 45.70818573 -182.12025452 42.97877502 C-182.12316736 42.19567335 -182.1260802 41.41257168 -182.12908131 40.60573965 C-182.11495112 35.33656542 -181.65384578 30.22937727 -181 25 C-180.67 25 -180.34 25 -180 25 C-180.33 96.28 -180.66 167.56 -181 241 C-160.46019848 229.7964719 -143.42673837 217.48558122 -126 202 C-125.47164551 201.53094238 -124.94329102 201.06188477 -124.39892578 200.57861328 C-113.33788343 190.71143865 -102.52437776 180.37397791 -93 169 C-92.195625 168.07316406 -91.39125 167.14632812 -90.5625 166.19140625 C-49.20358283 118.3785813 -21.52681975 59.00791371 0 0 Z " fill="#E1E3E7" transform="translate(683,751)"/>
<path d="M0 0 C0.33 0 0.66 0 1 0 C1 66.33 1 132.66 1 201 C-65.99 201 -132.98 201 -202 201 C-199.08896559 199.05931039 -198.17481911 198.70914956 -194.88671875 198.359375 C-194.06220215 198.26172852 -193.23768555 198.16408203 -192.38818359 198.06347656 C-191.05134521 197.90830566 -191.05134521 197.90830566 -189.6875 197.75 C-165.54821607 194.59612371 -142.39683185 186.4924809 -121 175 C-120.34966797 174.65743164 -119.69933594 174.31486328 -119.02929688 173.96191406 C-102.9666708 165.47166885 -88.62997872 154.96685368 -75 143 C-73.91525391 142.09894531 -73.91525391 142.09894531 -72.80859375 141.1796875 C-63.07002736 133.0347047 -54.79658715 122.96745352 -47 113 C-46.58282715 112.47132324 -46.1656543 111.94264648 -45.73583984 111.39794922 C-22.3094412 81.47916592 -4.37709118 42.39390683 -1.32421875 4.26171875 C-1 1 -1 1 0 0 Z " fill="#000001" transform="translate(1253,1053)"/>
<path d="M0 0 C0.33 0 0.66 0 1 0 C1.13535156 1.06992188 1.27070313 2.13984375 1.41015625 3.2421875 C4.33017398 24.6009154 10.10103271 45.35842288 19 65 C19.36963867 65.81629883 19.73927734 66.63259766 20.12011719 67.47363281 C28.64217109 85.96814946 39.51146737 103.87404646 53.2890625 118.9453125 C55 121 55 121 56.7734375 123.79296875 C59.4848769 127.69839286 62.61391548 130.86871214 66 134.1875 C66.61617188 134.80302734 67.23234375 135.41855469 67.8671875 136.05273438 C70.31080299 138.47275272 72.66769242 140.75449712 75.4375 142.80078125 C75.953125 143.19652344 76.46875 143.59226562 77 144 C77 144.66 77 145.32 77 146 C77.556875 146.061875 78.11375 146.12375 78.6875 146.1875 C81 147 81 147 83.16796875 149.19921875 C86.42752346 152.42280596 89.88002757 154.99887552 93.625 157.625 C94.36210205 158.14280029 95.0992041 158.66060059 95.85864258 159.1940918 C125.32528396 179.5574192 161.45260161 196.5728116 197.65234375 198.65625 C200 199 200 199 203 201 C136.01 201 69.02 201 0 201 C0 134.67 0 68.34 0 0 Z " fill="#000001" transform="translate(0,1053)"/>
<path d="M0 0 C66.99 0 133.98 0 203 0 C203 66.33 203 132.66 203 201 C202.67 201 202.34 201 202 201 C201.85304688 199.88367188 201.70609375 198.76734375 201.5546875 197.6171875 C198.92761131 178.85584061 193.93259083 160.62882575 187 143 C186.58741943 141.95030029 186.58741943 141.95030029 186.16650391 140.87939453 C177.60463543 119.54957329 165.1186047 99.061383 150.125 81.625 C148 79 148 79 148 77 C147.44441406 76.78472656 146.88882812 76.56945312 146.31640625 76.34765625 C143.2508485 74.56415301 141.22356091 72.09100759 138.9375 69.4375 C132.99411715 62.73629036 126.32784309 57.26086792 119.1796875 51.875 C118.46039062 51.25625 117.74109375 50.6375 117 50 C117 49.34 117 48.68 117 48 C116.45472656 47.75121094 115.90945313 47.50242188 115.34765625 47.24609375 C112.51737371 45.74383064 110.03737405 43.93698546 107.4375 42.0625 C74.93524294 19.22750884 39.1369624 6.62992036 0 1 C0 0.67 0 0.34 0 0 Z " fill="#000001" transform="translate(1051,0)"/>
<path d="M0 0 C66.99 0 133.98 0 203 0 C199.49416342 2.33722439 197.35086577 2.47974774 193.1875 2.9375 C155.54831354 7.49583181 115.5272647 23.98020554 86.6484375 48.8359375 C84 51 84 51 82 51 C81.67 51.99 81.34 52.98 81 54 C79.63993174 54.88512379 78.27712408 55.76623185 76.90332031 56.62988281 C72.63633351 59.7015003 69.06542792 63.6505066 65.375 67.375 C64.529375 68.21289062 63.68375 69.05078125 62.8125 69.9140625 C58.66964707 74.06998437 55.08158215 78.01487642 52 83 C50.6243654 84.68337694 49.22793523 86.349948 47.8125 88 C42.60022501 94.31945758 38.26450906 101.03168603 34 108 C33.59104492 108.65774414 33.18208984 109.31548828 32.76074219 109.99316406 C16.06519516 136.91939272 4.30993555 168.38440869 1 200 C0.67 200 0.34 200 0 200 C0 134 0 68 0 0 Z " fill="#000001" transform="translate(0,0)"/>
<path d="M0 0 C0.66 0.99 1.32 1.98 2 3 C-0.31 5.64 -2.62 8.28 -5 11 C-5.99 10.67 -6.98 10.34 -8 10 C-5.36 6.7 -2.72 3.4 0 0 Z " fill="#1E6CF4" transform="translate(758,612)"/>
<path d="M0 0 C0.33 0 0.66 0 1 0 C1.05441656 1.89551022 1.09298035 3.7914792 1.125 5.6875 C1.14820313 6.74324219 1.17140625 7.79898438 1.1953125 8.88671875 C0.99858729 12.02251859 0.33057654 14.17645373 -1 17 C-1.33 17 -1.66 17 -2 17 C-2.21824777 10.9981863 -1.5056904 5.80766296 0 0 Z " fill="#4688F6" transform="translate(687,735)"/>
<path d="M0 0 C5.61 0 11.22 0 17 0 C16.67 0.99 16.34 1.98 16 3 C10.72 2.34 5.44 1.68 0 1 C0 0.67 0 0.34 0 0 Z " fill="#010511" transform="translate(1051,0)"/>
<path d="M0 0 C0.33 0 0.66 0 1 0 C1.08142927 1.7492214 1.13938541 3.49954542 1.1875 5.25 C1.23970703 6.71179687 1.23970703 6.71179687 1.29296875 8.203125 C0.96075202 11.37468742 0.11327721 12.67040307 -2 15 C-1.85973717 12.68715544 -1.71264442 10.37472409 -1.5625 8.0625 C-1.48128906 6.77472656 -1.40007812 5.48695312 -1.31640625 4.16015625 C-1 1 -1 1 0 0 Z " fill="#031945" transform="translate(1253,1053)"/>
<path d="M0 0 C2.97526665 2.55022856 4.50122302 5.40293526 6 9 C5.67 9.99 5.34 10.98 5 12 C3.02 8.37 1.04 4.74 -1 1 C-0.67 0.67 -0.34 0.34 0 0 Z " fill="#1464F4" transform="translate(569,482)"/>
<path d="M0 0 C0.66 0 1.32 0 2 0 C2 0.66 2 1.32 2 2 C2.8971875 2.37125 2.8971875 2.37125 3.8125 2.75 C6.28647521 4.16370012 7.43370255 5.65055383 9 8 C6 8 6 8 4.39453125 6.7578125 C3.87246094 6.21898437 3.35039063 5.68015625 2.8125 5.125 C2.28269531 4.59132813 1.75289062 4.05765625 1.20703125 3.5078125 C0 2 0 2 0 0 Z " fill="#0553D3" transform="translate(57,1177)"/>
<path d="M0 0 C0 3.58912412 -0.66436554 4.10857029 -3 6.6875 C-3.556875 7.31011719 -4.11375 7.93273437 -4.6875 8.57421875 C-5.120625 9.04472656 -5.55375 9.51523438 -6 10 C-6.66 9.67 -7.32 9.34 -8 9 C-6.85459775 7.68712379 -5.70866567 6.37470979 -4.5625 5.0625 C-3.92441406 4.33160156 -3.28632812 3.60070312 -2.62890625 2.84765625 C-1.77458541 1.87860647 -0.91348825 0.91348825 0 0 Z " fill="#0653D1" transform="translate(62,70)"/>
<path d="M0 0 C1.125 1.6875 1.125 1.6875 2 4 C1.125 6.75 1.125 6.75 0 9 C-0.66 9 -1.32 9 -2 9 C-1.125 1.125 -1.125 1.125 0 0 Z " fill="#1869F3" transform="translate(986,271)"/>
<path d="M0 0 C0.6875 1.75 0.6875 1.75 1 4 C-0.4375 6.25 -0.4375 6.25 -2 8 C-2.66 7.01 -3.32 6.02 -4 5 C-2.25 1.125 -2.25 1.125 0 0 Z " fill="#D1E0FA" transform="translate(923,555)"/>
<path d="M0 0 C0.33 1.32 0.66 2.64 1 4 C0.01 4.33 -0.98 4.66 -2 5 C-2.73323796 7.01508358 -2.73323796 7.01508358 -3 9 C-3.66 8.01 -4.32 7.02 -5 6 C-3.35 4.02 -1.7 2.04 0 0 Z " fill="#2470F4" transform="translate(838,515)"/>
<path d="M0 0 C-0.33 2.31 -0.66 4.62 -1 7 C-2.65 5.35 -4.3 3.7 -6 2 C-2.25 0 -2.25 0 0 0 Z " fill="#D4E6FC" transform="translate(993,239)"/>
<path d="M0 0 C1 4 1 4 -0.3125 6.25 C-1.1478125 7.11625 -1.1478125 7.11625 -2 8 C-2.66 8 -3.32 8 -4 8 C-4 8.66 -4 9.32 -4 10 C-4.66 9.67 -5.32 9.34 -6 9 C-4.02 6.03 -2.04 3.06 0 0 Z " fill="#0457DC" transform="translate(42,94)"/>
<path d="M0 0 C0.99 0.33 1.98 0.66 3 1 C1.35 2.98 -0.3 4.96 -2 7 C-2.99 6.67 -3.98 6.34 -5 6 C-3.35 4.02 -1.7 2.04 0 0 Z " fill="#1969F5" transform="translate(844,508)"/>
<path d="M0 0 C0.6875 1.8125 0.6875 1.8125 1 4 C-0.4375 5.75 -0.4375 5.75 -2 7 C-2.99 6.67 -3.98 6.34 -5 6 C-3.35 4.02 -1.7 2.04 0 0 Z " fill="#1F6DF5" transform="translate(764,605)"/>
</svg>
